name C:\Users\u0101727\Documents\MyRepositories\upper-imu-dc\OpenSim\subject0\MA\ResultsMA\grid_4nodes_9dim\angles_16.mot
datacolumns 10
datarows 33
range 1600.01000000 1600.33000000
endheader 
time	clav_prot	clav_elev	scapula_abduction	scapula_elevation	scapula_upward_rot	scapula_winging	plane_elv	shoulder_elv	axial_rot	
       1600.01000000	        -50.00000000	        -10.00000000	        -40.00000000	        -10.00000000	         30.00000000	        -20.00000000	         90.00000000	         26.66666667	         30.00000000	
       1600.02000000	        -38.33333333	        -10.00000000	        -40.00000000	        -10.00000000	         30.00000000	        -20.00000000	         90.00000000	         26.66666667	         30.00000000	
       1600.03000000	        -26.66666667	        -10.00000000	        -40.00000000	        -10.00000000	         30.00000000	        -20.00000000	         90.00000000	         26.66666667	         30.00000000	
       1600.04000000	        -15.00000000	        -10.00000000	        -40.00000000	        -10.00000000	         30.00000000	        -20.00000000	         90.00000000	         26.66666667	         30.00000000	
       1600.05000000	        -50.00000000	          0.00000000	        -40.00000000	        -10.00000000	         30.00000000	        -20.00000000	         90.00000000	         26.66666667	         30.00000000	
       1600.06000000	        -38.33333333	          0.00000000	        -40.00000000	        -10.00000000	         30.00000000	        -20.00000000	         90.00000000	         26.66666667	         30.00000000	
       1600.07000000	        -26.66666667	          0.00000000	        -40.00000000	        -10.00000000	         30.00000000	        -20.00000000	         90.00000000	         26.66666667	         30.00000000	
       1600.08000000	        -15.00000000	          0.00000000	        -40.00000000	        -10.00000000	         30.00000000	        -20.00000000	         90.00000000	         26.66666667	         30.00000000	
       1600.09000000	        -50.00000000	         10.00000000	        -40.00000000	        -10.00000000	         30.00000000	        -20.00000000	         90.00000000	         26.66666667	         30.00000000	
       1600.10000000	        -38.33333333	         10.00000000	        -40.00000000	        -10.00000000	         30.00000000	        -20.00000000	         90.00000000	         26.66666667	         30.00000000	
       1600.11000000	        -26.66666667	         10.00000000	        -40.00000000	        -10.00000000	         30.00000000	        -20.00000000	         90.00000000	         26.66666667	         30.00000000	
       1600.12000000	        -15.00000000	         10.00000000	        -40.00000000	        -10.00000000	         30.00000000	        -20.00000000	         90.00000000	         26.66666667	         30.00000000	
       1600.13000000	        -50.00000000	         20.00000000	        -40.00000000	        -10.00000000	         30.00000000	        -20.00000000	         90.00000000	         26.66666667	         30.00000000	
       1600.14000000	        -38.33333333	         20.00000000	        -40.00000000	        -10.00000000	         30.00000000	        -20.00000000	         90.00000000	         26.66666667	         30.00000000	
       1600.15000000	        -26.66666667	         20.00000000	        -40.00000000	        -10.00000000	         30.00000000	        -20.00000000	         90.00000000	         26.66666667	         30.00000000	
       1600.16000000	        -15.00000000	         20.00000000	        -40.00000000	        -10.00000000	         30.00000000	        -20.00000000	         90.00000000	         26.66666667	         30.00000000	
       1600.17000000	        -50.00000000	        -10.00000000	        -21.66666667	        -10.00000000	         30.00000000	        -20.00000000	         90.00000000	         26.66666667	         30.00000000	
       1600.18000000	        -38.33333333	        -10.00000000	        -21.66666667	        -10.00000000	         30.00000000	        -20.00000000	         90.00000000	         26.66666667	         30.00000000	
       1600.19000000	        -26.66666667	        -10.00000000	        -21.66666667	        -10.00000000	         30.00000000	        -20.00000000	         90.00000000	         26.66666667	         30.00000000	
       1600.20000000	        -15.00000000	        -10.00000000	        -21.66666667	        -10.00000000	         30.00000000	        -20.00000000	         90.00000000	         26.66666667	         30.00000000	
       1600.21000000	        -50.00000000	          0.00000000	        -21.66666667	        -10.00000000	         30.00000000	        -20.00000000	         90.00000000	         26.66666667	         30.00000000	
       1600.22000000	        -38.33333333	          0.00000000	        -21.66666667	        -10.00000000	         30.00000000	        -20.00000000	         90.00000000	         26.66666667	         30.00000000	
       1600.23000000	        -26.66666667	          0.00000000	        -21.66666667	        -10.00000000	         30.00000000	        -20.00000000	         90.00000000	         26.66666667	         30.00000000	
       1600.24000000	        -15.00000000	          0.00000000	        -21.66666667	        -10.00000000	         30.00000000	        -20.00000000	         90.00000000	         26.66666667	         30.00000000	
       1600.25000000	        -50.00000000	         10.00000000	        -21.66666667	        -10.00000000	         30.00000000	        -20.00000000	         90.00000000	         26.66666667	         30.00000000	
       1600.26000000	        -38.33333333	         10.00000000	        -21.66666667	        -10.00000000	         30.00000000	        -20.00000000	         90.00000000	         26.66666667	         30.00000000	
       1600.27000000	        -26.66666667	         10.00000000	        -21.66666667	        -10.00000000	         30.00000000	        -20.00000000	         90.00000000	         26.66666667	         30.00000000	
       1600.28000000	        -15.00000000	         10.00000000	        -21.66666667	        -10.00000000	         30.00000000	        -20.00000000	         90.00000000	         26.66666667	         30.00000000	
       1600.29000000	        -50.00000000	         20.00000000	        -21.66666667	        -10.00000000	         30.00000000	        -20.00000000	         90.00000000	         26.66666667	         30.00000000	
       1600.30000000	        -38.33333333	         20.00000000	        -21.66666667	        -10.00000000	         30.00000000	        -20.00000000	         90.00000000	         26.66666667	         30.00000000	
       1600.31000000	        -26.66666667	         20.00000000	        -21.66666667	        -10.00000000	         30.00000000	        -20.00000000	         90.00000000	         26.66666667	         30.00000000	
       1600.32000000	        -15.00000000	         20.00000000	        -21.66666667	        -10.00000000	         30.00000000	        -20.00000000	         90.00000000	         26.66666667	         30.00000000	
       1600.33000000	        -50.00000000	        -10.00000000	         -3.33333333	        -10.00000000	         30.00000000	        -20.00000000	         90.00000000	         26.66666667	         30.00000000	
